<?xml version="1.0" encoding="UTF-8" standalone="no"?>
<!-- Created with Inkscape (http://www.inkscape.org/) -->

<svg
   width="317.51971"
   height="350"
   viewBox="0 0 84.010426 92.604168"
   version="1.1"
   id="svg1"
   inkscape:version="1.3 (0e150ed6c4, 2023-07-21)"
   sodipodi:docname="app-icon-contrast.svg"
   xml:space="preserve"
   inkscape:export-filename="app-icon-contrast.png"
   inkscape:export-xdpi="96"
   inkscape:export-ydpi="96"
   xmlns:inkscape="http://www.inkscape.org/namespaces/inkscape"
   xmlns:sodipodi="http://sodipodi.sourceforge.net/DTD/sodipodi-0.dtd"
   xmlns:xlink="http://www.w3.org/1999/xlink"
   xmlns="http://www.w3.org/2000/svg"
   xmlns:svg="http://www.w3.org/2000/svg"><sodipodi:namedview
     id="namedview1"
     pagecolor="#ffffff"
     bordercolor="currentColor"
     borderopacity="0.25"
     inkscape:showpageshadow="2"
     inkscape:pageopacity="0.0"
     inkscape:pagecheckerboard="0"
     inkscape:deskcolor="#d1d1d1"
     inkscape:document-units="px"
     inkscape:zoom="0.35355339"
     inkscape:cx="900.85404"
     inkscape:cy="-19.79899"
     inkscape:window-width="1920"
     inkscape:window-height="1011"
     inkscape:window-x="0"
     inkscape:window-y="0"
     inkscape:window-maximized="1"
     inkscape:current-layer="layer1"
     showgrid="false"><inkscape:grid
       id="grid1"
       units="px"
       originx="170.00001"
       originy="170.00002"
       spacingx="0.26458334"
       spacingy="0.26458334"
       empcolor="#0099e5"
       empopacity="0.30196078"
       color="#0099e5"
       opacity="0.14901961"
       empspacing="5"
       dotted="false"
       gridanglex="30"
       gridanglez="30"
       visible="false" /></sodipodi:namedview><defs
     id="defs1"><linearGradient
       id="linearGradient1"
       inkscape:collect="always"><stop
         style="stop-color:#3584e4;stop-opacity:1;"
         offset="0"
         id="stop13" /><stop
         style="stop-color:#9141ac;stop-opacity:1"
         offset="1"
         id="stop14" /></linearGradient><clipPath
       id="i"><rect
         height="152"
         width="192"
         id="rect15"
         x="0"
         y="0" /></clipPath><mask
       id="h"><g
         filter="url(#e)"
         id="g14"><rect
           fill-opacity="0.3"
           height="128"
           width="128"
           id="rect14"
           x="0"
           y="0" /></g></mask><filter
       id="e"
       height="1"
       width="1"
       x="0"
       y="0"><feColorMatrix
         in="SourceGraphic"
         type="matrix"
         values="0 0 0 0 1 0 0 0 0 1 0 0 0 0 1 0 0 0 1 0"
         id="feColorMatrix12" /></filter><clipPath
       id="g"><rect
         height="152"
         width="192"
         id="rect13"
         x="0"
         y="0" /></clipPath><mask
       id="f"><g
         filter="url(#e)"
         id="g12"><rect
           fill-opacity="0.3"
           height="128"
           width="128"
           id="rect12"
           x="0"
           y="0" /></g></mask><linearGradient
       id="d"
       gradientUnits="userSpaceOnUse"
       x1="76.000031"
       x2="52.000031"
       y1="110"
       y2="110"
       gradientTransform="matrix(0.26458334,0,0,0.26458334,44.449998,164.83541)"><stop
         offset="0"
         stop-color="#241f31"
         id="stop7" /><stop
         offset="0.0357143"
         id="stop8" /><stop
         offset="0.0713653"
         stop-color="#241f31"
         id="stop9" /><stop
         offset="0.928571"
         stop-color="#241f31"
         id="stop10" /><stop
         offset="0.964286"
         id="stop11" /><stop
         offset="1"
         stop-color="#241f31"
         id="stop12" /></linearGradient><linearGradient
       id="a"
       gradientUnits="userSpaceOnUse"><stop
         offset="0"
         stop-color="#241f31"
         id="stop1" /><stop
         offset="0.0357143"
         stop-color="#5e5c64"
         id="stop2" /><stop
         offset="0.0713653"
         stop-color="#241f31"
         id="stop3" /><stop
         offset="0.928571"
         stop-color="#241f31"
         id="stop4" /><stop
         offset="0.964286"
         stop-color="#5e5c64"
         id="stop5" /><stop
         offset="1"
         stop-color="#241f31"
         id="stop6" /></linearGradient><linearGradient
       inkscape:collect="always"
       xlink:href="#a"
       id="linearGradient10"
       gradientTransform="matrix(0.26458334,0,0,0.26458334,44.449998,164.83541)"
       x1="88.000031"
       y1="119.99999"
       x2="40"
       y2="119.99999" /><linearGradient
       inkscape:collect="always"
       xlink:href="#a"
       id="linearGradient11"
       gradientTransform="matrix(0.26458334,0,0,0.26458334,44.449998,164.83541)"
       x1="120"
       y1="95.999992"
       x2="8.0000038"
       y2="95.999992" /><linearGradient
       inkscape:collect="always"
       xlink:href="#d"
       id="linearGradient12"
       gradientUnits="userSpaceOnUse"
       gradientTransform="matrix(0.26458334,0,0,0.26458334,44.449998,164.83541)"
       x1="76.000031"
       y1="110"
       x2="52.000031"
       y2="110" /><linearGradient
       inkscape:collect="always"
       xlink:href="#linearGradient1"
       id="linearGradient13"
       gradientUnits="userSpaceOnUse"
       gradientTransform="matrix(0.26458334,0,0,0.26458334,44.449998,164.83541)"
       x1="27.147552"
       y1="73.140961"
       x2="96.676102"
       y2="12" /><linearGradient
       inkscape:collect="always"
       xlink:href="#a"
       id="linearGradient36"
       gradientTransform="matrix(0.26458334,0,0,0.26458334,44.449998,164.83541)"
       x1="88.000031"
       y1="119.99999"
       x2="40"
       y2="119.99999" /><linearGradient
       inkscape:collect="always"
       xlink:href="#a"
       id="linearGradient37"
       gradientTransform="matrix(0.26458334,0,0,0.26458334,44.449998,164.83541)"
       x1="120"
       y1="95.999992"
       x2="8.0000038"
       y2="95.999992" /><linearGradient
       inkscape:collect="always"
       xlink:href="#d"
       id="linearGradient38"
       gradientUnits="userSpaceOnUse"
       gradientTransform="matrix(0.26458334,0,0,0.26458334,44.449998,164.83541)"
       x1="76.000031"
       y1="110"
       x2="52.000031"
       y2="110" /><linearGradient
       inkscape:collect="always"
       xlink:href="#linearGradient1"
       id="linearGradient39"
       gradientUnits="userSpaceOnUse"
       gradientTransform="matrix(0.26458334,0,0,0.26458334,44.449998,164.83541)"
       x1="27.147552"
       y1="73.140961"
       x2="96.676102"
       y2="12" /><linearGradient
       y2="203.99988"
       x2="445.18536"
       y1="203.99988"
       x1="29.185287"
       gradientTransform="matrix(0.04579326,0,0,0.06299603,61.898925,126.20625)"
       gradientUnits="userSpaceOnUse"
       id="linearGradient1621"
       xlink:href="#linearGradient1683"
       inkscape:collect="always" /><linearGradient
       id="linearGradient1683"
       inkscape:collect="always"><stop
         id="stop1671"
         offset="0"
         style="stop-color:#3d3846;stop-opacity:1" /><stop
         style="stop-color:#9a9996;stop-opacity:1"
         offset="0.04545455"
         id="stop1673" /><stop
         id="stop1675"
         offset="0.09090909"
         style="stop-color:#5e5c64;stop-opacity:1" /><stop
         style="stop-color:#5e5c64;stop-opacity:1"
         offset="0.90909088"
         id="stop1677" /><stop
         id="stop1679"
         offset="0.95341843"
         style="stop-color:#9a9996;stop-opacity:1" /><stop
         id="stop1681"
         offset="1"
         style="stop-color:#3d3846;stop-opacity:1" /></linearGradient><linearGradient
       gradientTransform="matrix(0.29765623,0,0,0.26458334,70.950778,17.627272)"
       gradientUnits="userSpaceOnUse"
       y2="421.08215"
       x2="40.07354"
       y1="350.3772"
       x1="-45.920376"
       id="linearGradient1696"
       xlink:href="#linearGradient2118"
       inkscape:collect="always" /><linearGradient
       inkscape:collect="always"
       id="linearGradient2118"><stop
         style="stop-color:#deddda;stop-opacity:1"
         offset="0"
         id="stop2110" /><stop
         id="stop2112"
         offset="0.33943874"
         style="stop-color:#77767b;stop-opacity:1" /><stop
         style="stop-color:#c0bfbc;stop-opacity:1"
         offset="0.72000003"
         id="stop2114" /><stop
         style="stop-color:#77767b;stop-opacity:1"
         offset="1"
         id="stop2116" /></linearGradient><linearGradient
       inkscape:collect="always"
       xlink:href="#linearGradient1683"
       id="linearGradient100"
       gradientUnits="userSpaceOnUse"
       gradientTransform="matrix(0.04579326,0,0,0.06299603,61.898925,126.20625)"
       x1="29.185287"
       y1="203.99988"
       x2="445.18536"
       y2="203.99988" /><linearGradient
       inkscape:collect="always"
       xlink:href="#linearGradient2118"
       id="linearGradient101"
       gradientUnits="userSpaceOnUse"
       gradientTransform="matrix(0.29765623,0,0,0.26458334,70.950778,17.627272)"
       x1="-45.920376"
       y1="350.3772"
       x2="40.07354"
       y2="421.08215" /></defs><g
     inkscape:label="Layer 1"
     inkscape:groupmode="layer"
     id="layer1"
     transform="translate(12.700003,-93.662491)"><rect
       style="opacity:1;fill:#ffffff;fill-opacity:1;stroke:none;stroke-width:0.29912;stroke-linecap:round;stroke-linejoin:round;stroke-opacity:1"
       id="rect188"
       width="84.010429"
       height="92.604172"
       x="-12.700003"
       y="93.662491" /><rect
       style="opacity:1;fill:#313131;fill-opacity:1;stroke:#313131;stroke-width:0.264583;stroke-linecap:square;stroke-linejoin:round;stroke-opacity:1"
       id="rect16"
       width="33.602085"
       height="33.602085"
       x="-7.2760363"
       y="138.77396"
       rx="0.5291667"
       ry="0.5291667" /><rect
       style="opacity:1;fill:#313131;fill-opacity:1;stroke:#313131;stroke-width:0.264583;stroke-linecap:square;stroke-linejoin:round;stroke-opacity:1"
       id="rect102"
       width="33.602085"
       height="33.602085"
       x="32.411461"
       y="138.77396"
       rx="0.5291667"
       ry="0.5291667" /><g
       id="g7"><circle
         style="opacity:1;fill:#26a269;fill-opacity:1;stroke:none;stroke-width:0.264583;stroke-linecap:square;stroke-linejoin:round;stroke-opacity:1"
         id="circle5"
         cx="49.212505"
         cy="179.38745"
         r="3.1749556" /><path
         style="opacity:1;fill:none;stroke:#ffffff;stroke-width:0.529167;stroke-linecap:round;stroke-linejoin:round;stroke-opacity:1"
         d="m 50.800002,178.32912 -2.116659,2.11665 -1.058281,-1.05828"
         id="path6"
         sodipodi:nodetypes="ccc" /></g><g
       id="g156"
       transform="translate(-39.687497)"><circle
         style="opacity:1;fill:#e01b24;stroke:none;stroke-width:0.264583;stroke-linecap:square;stroke-linejoin:round;stroke-opacity:1"
         id="circle155"
         cx="49.212505"
         cy="179.38745"
         r="3.1749556" /><path
         style="opacity:1;fill:#e01b24;stroke:#ffffff;stroke-width:0.529167;stroke-linecap:round;stroke-linejoin:round;stroke-opacity:1"
         d="m 47.889593,180.71036 2.645826,-2.64582"
         id="path155" /><path
         style="opacity:1;fill:#e01b24;stroke:#ffffff;stroke-width:0.529167;stroke-linecap:round;stroke-linejoin:round;stroke-opacity:1"
         d="m 50.535419,180.71036 -2.645826,-2.64582"
         id="path156" /></g><g
       id="g10"
       transform="translate(-51.858329,-26.193744)"><rect
         style="fill:#000000;fill-opacity:0;stroke-width:0.529167;stroke-linecap:round;stroke-linejoin:round"
         id="rect1"
         width="33.866669"
         height="33.866669"
         x="44.449997"
         y="164.8354" /><path
         d="m 56.091665,177.53541 c -0.586011,0 -1.058333,0.47232 -1.058333,1.05833 v 16.93334 c 0,0.58601 0.472322,1.05833 1.058333,1.05833 h 10.583334 c 0.58601,0 1.058333,-0.47232 1.058333,-1.05833 v -16.93334 c 0,-0.58601 -0.472323,-1.05833 -1.058333,-1.05833 z m 5.291667,9.525 c 1.753898,0 3.175,1.4211 3.175,3.175 0,1.7539 -1.421102,3.175 -3.175,3.175 -1.753898,0 -3.175,-1.4211 -3.175,-3.175 0,-1.7539 1.421102,-3.175 3.175,-3.175 z m 0,0"
         fill="url(#b)"
         id="path1"
         style="fill:url(#linearGradient10);stroke-width:0.264583" /><path
         d="m 56.091665,176.47708 c -0.586011,0 -1.058333,0.47232 -1.058333,1.05833 v 17.4625 c 0,0.58601 0.472322,1.05833 1.058333,1.05833 h 10.583334 c 0.58601,0 1.058333,-0.47232 1.058333,-1.05833 v -17.4625 c 0,-0.58601 -0.472323,-1.05833 -1.058333,-1.05833 z m 5.291667,10.58333 c 1.753898,0 3.175,1.4211 3.175,3.175 0,1.7539 -1.421102,3.175 -3.175,3.175 -1.753898,0 -3.175,-1.4211 -3.175,-3.175 0,-1.7539 1.421102,-3.175 3.175,-3.175 z m 0,0"
         fill="#3d3846"
         id="path2"
         style="stroke-width:0.264583" /><path
         d="m 48.683331,170.12708 h 25.400001 c 1.168921,0 2.116667,0.94774 2.116667,2.11666 v 15.875 c 0,1.16892 -0.947746,2.11667 -2.116667,2.11667 H 48.683331 c -1.168921,0 -2.116666,-0.94775 -2.116666,-2.11667 v -15.875 c 0,-1.16892 0.947745,-2.11666 2.116666,-2.11666 z m 0,0"
         fill="url(#c)"
         id="path3"
         style="fill:url(#linearGradient11);stroke-width:0.264583" /><path
         d="m 48.683331,166.95208 h 25.400001 c 1.168921,0 2.116667,0.94774 2.116667,2.11666 v 17.99167 c 0,1.16892 -0.947746,2.11667 -2.116667,2.11667 H 48.683331 c -1.168921,0 -2.116666,-0.94775 -2.116666,-2.11667 v -17.99167 c 0,-1.16892 0.947745,-2.11666 2.116666,-2.11666 z m 0,0"
         fill="#3d3846"
         id="path4"
         style="stroke-width:0.264583" /><path
         d="m 64.542829,190.45349 c -0.114722,1.66191 -1.493449,2.95279 -3.159497,2.95692 -1.647445,-0.004 -3.018937,-1.26814 -3.155363,-2.91042 -0.01034,0.0879 -0.01654,0.1757 -0.01964,0.26459 0,1.7539 1.421102,3.175 3.175,3.175 1.753899,0 3.175001,-1.4211 3.175001,-3.175 0,-0.10439 -0.0052,-0.20774 -0.0155,-0.31109 z m 0,0"
         fill="url(#d)"
         id="path5"
         style="fill:url(#linearGradient12);stroke-width:0.264583" /><g
         clip-path="url(#g)"
         mask="url(#f)"
         transform="matrix(0.26458334,0,0,0.26458334,42.333331,160.60208)"
         id="g8"><path
           d="m 48,112 h 12 v 4 H 48 Z m 0,0"
           id="path7" /></g><g
         clip-path="url(#i)"
         mask="url(#h)"
         transform="matrix(0.26458334,0,0,0.26458334,42.333331,160.60208)"
         id="g9"><path
           d="m 84,112 h 12 v 4 H 84 Z m 0,0"
           id="path8" /></g><path
         d="m 48.683331,168.01041 h 25.400001 c 0.584978,0 1.058333,0.47336 1.058333,1.05833 v 16.93334 c 0,0.58497 -0.473355,1.05833 -1.058333,1.05833 H 48.683331 c -0.584977,0 -1.058333,-0.47336 -1.058333,-1.05833 v -16.93334 c 0,-0.58497 0.473356,-1.05833 1.058333,-1.05833 z m 0,0"
         fill="url(#j)"
         id="path9"
         style="fill:url(#linearGradient13);stroke-width:0.264583" /></g><g
       id="g235"
       transform="translate(-59.795833,167.48121)"><rect
         style="display:inline;overflow:visible;visibility:visible;fill:#000000;fill-opacity:0;fill-rule:nonzero;stroke:none;stroke-width:0.132292;marker:none;enable-background:accumulate"
         id="rect230"
         width="33.866669"
         height="33.866669"
         x="92.075005"
         y="-28.839592"
         inkscape:label="0" /></g><rect
       style="opacity:0.2;fill:#ffffff;stroke:#000000;stroke-width:0.264583;stroke-linecap:square;stroke-linejoin:round;stroke-opacity:1"
       id="rect18"
       width="33.602085"
       height="33.602085"
       x="-7.2760425"
       y="99.086472"
       rx="0.5291667"
       ry="0.5291667" /><g
       id="g19"
       transform="translate(-99.483328,127.79376)"><rect
         style="display:inline;overflow:visible;visibility:visible;fill:#000000;fill-opacity:0;fill-rule:nonzero;stroke:none;stroke-width:0.132292;marker:none;enable-background:accumulate"
         id="rect19"
         width="33.866669"
         height="33.866669"
         x="92.075005"
         y="-28.839592"
         inkscape:label="0" /></g><g
       id="g20"
       transform="translate(-39.687497,-39.687497)"><circle
         cx="49.212509"
         cy="155.575"
         r="15.743801"
         id="circle19"
         style="display:inline;opacity:0.2;fill:none;fill-opacity:1;stroke:currentColor;stroke-width:0.261937;stroke-linecap:butt;stroke-linejoin:miter;stroke-miterlimit:4;stroke-dasharray:none;stroke-dashoffset:0;stroke-opacity:1;marker:none;marker-start:none;marker-mid:none;marker-end:none;paint-order:normal;enable-background:new" /><rect
         ry="2.096508"
         rx="2.096508"
         y="141.94769"
         x="35.585205"
         height="27.254602"
         width="27.254602"
         id="rect20"
         style="display:inline;opacity:0.2;fill:none;fill-opacity:1;stroke:currentColor;stroke-width:0.261937;stroke-linecap:butt;stroke-linejoin:miter;stroke-miterlimit:4;stroke-dasharray:none;stroke-dashoffset:0;stroke-opacity:1;marker:none;marker-start:none;marker-mid:none;marker-end:none;paint-order:normal;enable-background:new" /></g><g
       id="g36"
       transform="translate(-51.858329,-65.881239)"><rect
         style="fill:#000000;fill-opacity:0;stroke-width:0.529167;stroke-linecap:round;stroke-linejoin:round"
         id="rect21"
         width="33.866669"
         height="33.866669"
         x="44.449997"
         y="164.8354" /><path
         d="m 56.091665,177.53541 c -0.586011,0 -1.058333,0.47232 -1.058333,1.05833 v 16.93334 c 0,0.58601 0.472322,1.05833 1.058333,1.05833 h 10.583334 c 0.58601,0 1.058333,-0.47232 1.058333,-1.05833 v -16.93334 c 0,-0.58601 -0.472323,-1.05833 -1.058333,-1.05833 z m 5.291667,9.525 c 1.753898,0 3.175,1.4211 3.175,3.175 0,1.7539 -1.421102,3.175 -3.175,3.175 -1.753898,0 -3.175,-1.4211 -3.175,-3.175 0,-1.7539 1.421102,-3.175 3.175,-3.175 z m 0,0"
         fill="url(#b)"
         id="path21"
         style="fill:url(#linearGradient36);stroke-width:0.264583" /><path
         d="m 56.091665,176.47708 c -0.586011,0 -1.058333,0.47232 -1.058333,1.05833 v 17.4625 c 0,0.58601 0.472322,1.05833 1.058333,1.05833 h 10.583334 c 0.58601,0 1.058333,-0.47232 1.058333,-1.05833 v -17.4625 c 0,-0.58601 -0.472323,-1.05833 -1.058333,-1.05833 z m 5.291667,10.58333 c 1.753898,0 3.175,1.4211 3.175,3.175 0,1.7539 -1.421102,3.175 -3.175,3.175 -1.753898,0 -3.175,-1.4211 -3.175,-3.175 0,-1.7539 1.421102,-3.175 3.175,-3.175 z m 0,0"
         fill="#3d3846"
         id="path30"
         style="stroke-width:0.264583" /><path
         d="m 48.683331,170.12708 h 25.400001 c 1.168921,0 2.116667,0.94774 2.116667,2.11666 v 15.875 c 0,1.16892 -0.947746,2.11667 -2.116667,2.11667 H 48.683331 c -1.168921,0 -2.116666,-0.94775 -2.116666,-2.11667 v -15.875 c 0,-1.16892 0.947745,-2.11666 2.116666,-2.11666 z m 0,0"
         fill="url(#c)"
         id="path31"
         style="fill:url(#linearGradient37);stroke-width:0.264583" /><path
         d="m 48.683331,166.95208 h 25.400001 c 1.168921,0 2.116667,0.94774 2.116667,2.11666 v 17.99167 c 0,1.16892 -0.947746,2.11667 -2.116667,2.11667 H 48.683331 c -1.168921,0 -2.116666,-0.94775 -2.116666,-2.11667 v -17.99167 c 0,-1.16892 0.947745,-2.11666 2.116666,-2.11666 z m 0,0"
         fill="#3d3846"
         id="path32"
         style="stroke-width:0.264583" /><path
         d="m 64.542829,190.45349 c -0.114722,1.66191 -1.493449,2.95279 -3.159497,2.95692 -1.647445,-0.004 -3.018937,-1.26814 -3.155363,-2.91042 -0.01034,0.0879 -0.01654,0.1757 -0.01964,0.26459 0,1.7539 1.421102,3.175 3.175,3.175 1.753899,0 3.175001,-1.4211 3.175001,-3.175 0,-0.10439 -0.0052,-0.20774 -0.0155,-0.31109 z m 0,0"
         fill="url(#d)"
         id="path33"
         style="fill:url(#linearGradient38);stroke-width:0.264583" /><g
         clip-path="url(#g)"
         mask="url(#f)"
         transform="matrix(0.26458334,0,0,0.26458334,42.333331,160.60208)"
         id="g34"><path
           d="m 48,112 h 12 v 4 H 48 Z m 0,0"
           id="path34" /></g><g
         clip-path="url(#i)"
         mask="url(#h)"
         transform="matrix(0.26458334,0,0,0.26458334,42.333331,160.60208)"
         id="g35"><path
           d="m 84,112 h 12 v 4 H 84 Z m 0,0"
           id="path35" /></g><path
         d="m 48.683331,168.01041 h 25.400001 c 0.584978,0 1.058333,0.47336 1.058333,1.05833 v 16.93334 c 0,0.58497 -0.473355,1.05833 -1.058333,1.05833 H 48.683331 c -0.584977,0 -1.058333,-0.47336 -1.058333,-1.05833 v -16.93334 c 0,-0.58497 0.473356,-1.05833 1.058333,-1.05833 z m 0,0"
         fill="url(#j)"
         id="path36"
         style="fill:url(#linearGradient39);stroke-width:0.264583" /></g><g
       id="g39"
       transform="translate(-23.547914,28.310424)"><rect
         style="display:inline;fill:#464153;fill-opacity:1;stroke:none;stroke-width:0.0661458;stroke-linecap:butt;stroke-linejoin:miter;stroke-miterlimit:4;stroke-dasharray:none;stroke-dashoffset:0;stroke-opacity:1;marker:none;marker-start:none;marker-mid:none;marker-end:none;paint-order:normal;enable-background:new"
         id="rect2297"
         width="16.933334"
         height="10.054167"
         x="64.293747"
         y="132.02707"
         rx="2.1166668"
         ry="2.1166668" /><rect
         ry="2.1166668"
         rx="2.1166668"
         y="120.91457"
         x="63.235416"
         height="21.166668"
         width="19.050001"
         id="rect1496"
         style="display:inline;fill:url(#linearGradient1621);fill-opacity:1;stroke:none;stroke-width:0.0661458;stroke-linecap:butt;stroke-linejoin:miter;stroke-miterlimit:4;stroke-dasharray:none;stroke-dashoffset:0;stroke-opacity:1;marker:none;marker-start:none;marker-mid:none;marker-end:none;paint-order:normal;enable-background:new" /><rect
         style="display:inline;fill:url(#linearGradient1696);fill-opacity:1;stroke:none;stroke-width:0.0661458;stroke-linecap:butt;stroke-linejoin:miter;stroke-miterlimit:4;stroke-dasharray:none;stroke-dashoffset:0;stroke-opacity:1;marker:none;marker-start:none;marker-mid:none;marker-end:none;paint-order:normal;enable-background:new"
         id="rect1498"
         width="19.050001"
         height="26.458334"
         x="63.235416"
         y="112.44791"
         rx="2.1166668"
         ry="2.1166666" /><rect
         ry="1.058334"
         rx="1.0583341"
         y="113.50624"
         x="64.293747"
         height="24.341665"
         width="16.933334"
         id="rect1687"
         style="display:inline;fill:#3d3846;fill-opacity:1;stroke:none;stroke-width:0.0661458;stroke-linecap:butt;stroke-linejoin:miter;stroke-miterlimit:4;stroke-dasharray:none;stroke-dashoffset:0;stroke-opacity:1;marker:none;marker-start:none;marker-mid:none;marker-end:none;paint-order:normal;enable-background:new" /><rect
         ry="0.26458335"
         rx="0.26458335"
         y="114.56458"
         x="71.4375"
         height="0.5291667"
         width="2.6458335"
         id="rect1704"
         style="display:inline;fill:#9a9996;fill-opacity:1;stroke:none;stroke-width:0.264583;stroke-linecap:round;stroke-linejoin:round;enable-background:new" /><g
         style="display:inline;stroke-width:0.707107;enable-background:new"
         transform="matrix(0.52916668,0,0,0.26458334,41.539582,64.822907)"
         id="g1721"><rect
           style="opacity:1;fill:#c0bfbc;fill-opacity:1;stroke:none;stroke-width:0.707105;stroke-linecap:round;stroke-linejoin:round"
           id="rect1706"
           width="2"
           height="4"
           x="46"
           y="180" /><rect
           y="276"
           x="46"
           height="4"
           width="2"
           id="rect1710"
           style="opacity:1;fill:#deddda;fill-opacity:1;stroke:none;stroke-width:0.707105;stroke-linecap:round;stroke-linejoin:round" /><rect
           style="opacity:1;fill:#77767b;fill-opacity:1;stroke:none;stroke-width:0.707105;stroke-linecap:round;stroke-linejoin:round"
           id="rect1712"
           width="2"
           height="12"
           x="46"
           y="-292"
           transform="scale(1,-1)" /></g><g
         style="display:inline;stroke-width:0.707107;enable-background:new"
         transform="matrix(0.52916668,0,0,0.26458334,36.247915,64.822907)"
         id="g1726"><rect
           y="180"
           x="80"
           height="4"
           width="2"
           id="rect1708"
           style="opacity:1;fill:#deddda;fill-opacity:1;stroke:none;stroke-width:0.707105;stroke-linecap:round;stroke-linejoin:round" /><rect
           style="opacity:1;fill:#c0bfbc;fill-opacity:1;stroke:none;stroke-width:0.707105;stroke-linecap:round;stroke-linejoin:round"
           id="rect1714"
           width="2"
           height="4"
           x="80"
           y="276" /><rect
           transform="scale(1,-1)"
           y="-292"
           x="80"
           height="12"
           width="2"
           id="rect1716"
           style="opacity:1;fill:#77767b;fill-opacity:1;stroke:none;stroke-width:0.707105;stroke-linecap:round;stroke-linejoin:round" /></g><rect
         style="display:inline;fill:#241f31;fill-opacity:1;stroke:none;stroke-width:0.264583;stroke-linecap:round;stroke-linejoin:round;enable-background:new"
         id="rect1728"
         width="2.6458335"
         height="1.3229167"
         x="71.4375"
         y="139.7"
         rx="0.66145837"
         ry="0.66145837" /><path
         sodipodi:nodetypes="csssscssc"
         inkscape:connector-curvature="0"
         d="m 71.450935,140.22916 c -0.0086,0.0427 -0.01344,0.087 -0.01344,0.13229 0,0.36645 0.29501,0.66146 0.661458,0.66146 h 1.322917 c 0.366448,0 0.661458,-0.29501 0.661458,-0.66146 0,-0.0453 -0.0048,-0.0896 -0.01344,-0.13229 -0.06091,0.3027 -0.326855,0.52917 -0.648023,0.52917 h -1.322916 c -0.321167,0 -0.587117,-0.22647 -0.648023,-0.52917 z"
         style="display:inline;fill:#9a9996;fill-opacity:1;stroke:none;stroke-width:0.264583;stroke-linecap:round;stroke-linejoin:round;enable-background:new"
         id="rect1834" /><g
         transform="matrix(0.26458334,0,0,0.26458334,55.827082,64.955199)"
         id="g2295"
         style="display:inline;enable-background:new"><path
           inkscape:connector-curvature="0"
           id="circle1865"
           style="display:inline;fill:#241f31;fill-opacity:1;stroke:none;stroke-width:1;stroke-linecap:round;stroke-linejoin:round;enable-background:new"
           d="m 54.5,127.5 a 1.5,1.5 0 0 0 -1.5,1.5 1.5,1.5 0 0 0 1.5,1.5 1.5,1.5 0 0 0 1.5,-1.5 1.5,1.5 0 0 0 -1.5,-1.5 z m 4,0 a 1.5,1.5 0 0 0 -1.5,1.5 1.5,1.5 0 0 0 1.5,1.5 1.5,1.5 0 0 0 1.5,-1.5 1.5,1.5 0 0 0 -1.5,-1.5 z m 4,0 a 1.5,1.5 0 0 0 -1.5,1.5 1.5,1.5 0 0 0 1.5,1.5 1.5,1.5 0 0 0 1.5,-1.5 1.5,1.5 0 0 0 -1.5,-1.5 z"
           transform="translate(-8,156)" /><g
           transform="translate(27)"
           id="g1887"><circle
             r="1.5"
             cy="285"
             cx="46.5"
             style="display:inline;fill:#241f31;fill-opacity:1;stroke:none;stroke-width:1;stroke-linecap:round;stroke-linejoin:round;enable-background:new"
             id="circle1881" /><circle
             id="circle1883"
             style="display:inline;fill:#241f31;fill-opacity:1;stroke:none;stroke-width:1;stroke-linecap:round;stroke-linejoin:round;enable-background:new"
             cx="50.5"
             cy="285"
             r="1.5" /><circle
             r="1.5"
             cy="285"
             cx="54.5"
             style="display:inline;fill:#241f31;fill-opacity:1;stroke:none;stroke-width:1;stroke-linecap:round;stroke-linejoin:round;enable-background:new"
             id="circle1885" /></g><path
           inkscape:connector-curvature="0"
           id="path2046"
           style="display:inline;fill:#9a9996;fill-opacity:1;stroke:none;stroke-width:1;stroke-linecap:round;stroke-linejoin:round;enable-background:new"
           d="M 55.914062,128.49805 A 1.5,1.5 0 0 1 54.5,129.5 1.5,1.5 0 0 1 53.085938,128.50195 1.5,1.5 0 0 0 53,129 a 1.5,1.5 0 0 0 1.5,1.5 1.5,1.5 0 0 0 1.5,-1.5 1.5,1.5 0 0 0 -0.08594,-0.50195 z m 4,0 A 1.5,1.5 0 0 1 58.5,129.5 1.5,1.5 0 0 1 57.085938,128.50195 1.5,1.5 0 0 0 57,129 a 1.5,1.5 0 0 0 1.5,1.5 1.5,1.5 0 0 0 1.5,-1.5 1.5,1.5 0 0 0 -0.08594,-0.50195 z m 4,0 A 1.5,1.5 0 0 1 62.5,129.5 1.5,1.5 0 0 1 61.085938,128.50195 1.5,1.5 0 0 0 61,129 a 1.5,1.5 0 0 0 1.5,1.5 1.5,1.5 0 0 0 1.5,-1.5 1.5,1.5 0 0 0 -0.08594,-0.50195 z"
           transform="translate(-8,156)" /><path
           d="M 74.914062,284.49805 A 1.5,1.5 0 0 1 73.5,285.5 1.5,1.5 0 0 1 72.085938,284.50195 1.5,1.5 0 0 0 72,285 a 1.5,1.5 0 0 0 1.5,1.5 1.5,1.5 0 0 0 1.5,-1.5 1.5,1.5 0 0 0 -0.08594,-0.50195 z m 4,0 A 1.5,1.5 0 0 1 77.5,285.5 1.5,1.5 0 0 1 76.085938,284.50195 1.5,1.5 0 0 0 76,285 a 1.5,1.5 0 0 0 1.5,1.5 1.5,1.5 0 0 0 1.5,-1.5 1.5,1.5 0 0 0 -0.08594,-0.50195 z m 4,0 A 1.5,1.5 0 0 1 81.5,285.5 1.5,1.5 0 0 1 80.085938,284.50195 1.5,1.5 0 0 0 80,285 a 1.5,1.5 0 0 0 1.5,1.5 1.5,1.5 0 0 0 1.5,-1.5 1.5,1.5 0 0 0 -0.08594,-0.50195 z"
           style="display:inline;fill:#9a9996;fill-opacity:1;stroke:none;stroke-width:1;stroke-linecap:round;stroke-linejoin:round;enable-background:new"
           id="path2051"
           inkscape:connector-curvature="0" /></g><circle
         r="1.5875001"
         cy="133.87917"
         cx="67.997917"
         id="path2072"
         style="display:inline;fill:#f8e45c;fill-opacity:1;stroke:none;stroke-width:0.264583;stroke-linecap:round;stroke-linejoin:round;enable-background:new" /><circle
         style="display:inline;fill:#33d17a;fill-opacity:1;stroke:none;stroke-width:0.264583;stroke-linecap:round;stroke-linejoin:round;enable-background:new"
         id="circle2082"
         cx="72.760414"
         cy="133.87917"
         r="1.5875001" /><circle
         style="display:inline;fill:#ed333b;fill-opacity:1;stroke:none;stroke-width:0.264583;stroke-linecap:round;stroke-linejoin:round;enable-background:new"
         id="circle2084"
         cx="77.522919"
         cy="133.87917"
         r="1.5875001" /><circle
         style="display:inline;fill:#ed333b;fill-opacity:1;stroke:none;stroke-width:0.264583;stroke-linecap:round;stroke-linejoin:round;enable-background:new"
         id="circle2301"
         cx="67.997917"
         cy="128.85208"
         r="1.5875001" /><circle
         r="1.5875001"
         cy="128.85208"
         cx="72.760414"
         id="circle2303"
         style="display:inline;fill:#62a0ea;fill-opacity:1;stroke:none;stroke-width:0.264583;stroke-linecap:round;stroke-linejoin:round;enable-background:new" /><circle
         r="1.5875001"
         cy="128.85208"
         cx="77.522919"
         id="circle2305"
         style="display:inline;fill:#33d17a;fill-opacity:1;stroke:none;stroke-width:0.264583;stroke-linecap:round;stroke-linejoin:round;enable-background:new" /><circle
         r="1.5875001"
         cy="123.82499"
         cx="67.997917"
         id="circle2309"
         style="display:inline;fill:#33d17a;fill-opacity:1;stroke:none;stroke-width:0.264583;stroke-linecap:round;stroke-linejoin:round;enable-background:new" /><circle
         style="display:inline;fill:#deddda;fill-opacity:1;stroke:none;stroke-width:0.264583;stroke-linecap:round;stroke-linejoin:round;enable-background:new"
         id="circle2311"
         cx="72.760414"
         cy="123.82499"
         r="1.5875001" /><circle
         style="display:inline;fill:#f8e45c;fill-opacity:1;stroke:none;stroke-width:0.264583;stroke-linecap:round;stroke-linejoin:round;enable-background:new"
         id="circle2313"
         cx="77.522919"
         cy="123.82499"
         r="1.5875001" /><circle
         style="display:inline;fill:#62a0ea;fill-opacity:1;stroke:none;stroke-width:0.264583;stroke-linecap:round;stroke-linejoin:round;enable-background:new"
         id="circle2317"
         cx="67.997917"
         cy="118.7979"
         r="1.5875001" /><circle
         r="1.5875001"
         cy="118.7979"
         cx="72.760414"
         id="circle2319"
         style="display:inline;fill:#ed333b;fill-opacity:1;stroke:none;stroke-width:0.264583;stroke-linecap:round;stroke-linejoin:round;enable-background:new" /><circle
         r="1.5875001"
         cy="118.7979"
         cx="77.522919"
         id="circle2321"
         style="display:inline;fill:#deddda;fill-opacity:1;stroke:none;stroke-width:0.264583;stroke-linecap:round;stroke-linejoin:round;enable-background:new" /></g><g
       id="g102"><rect
         style="opacity:0.2;fill:#ffffff;stroke:#000000;stroke-width:0.264583;stroke-linecap:square;stroke-linejoin:round;stroke-opacity:1"
         id="rect68"
         width="33.602085"
         height="33.602085"
         x="32.411461"
         y="99.086472"
         rx="0.5291667"
         ry="0.5291667" /><g
         id="g69"
         transform="translate(-59.795833,127.79376)"><rect
           style="display:inline;overflow:visible;visibility:visible;fill:#000000;fill-opacity:0;fill-rule:nonzero;stroke:none;stroke-width:0.132292;marker:none;enable-background:accumulate"
           id="rect69"
           width="33.866669"
           height="33.866669"
           x="92.075005"
           y="-28.839592"
           inkscape:label="0" /></g><g
         id="g70"
         transform="translate(0,-39.687497)"><circle
           cx="49.212509"
           cy="155.575"
           r="15.743801"
           id="circle69"
           style="display:inline;opacity:0.2;fill:none;fill-opacity:1;stroke:currentColor;stroke-width:0.261937;stroke-linecap:butt;stroke-linejoin:miter;stroke-miterlimit:4;stroke-dasharray:none;stroke-dashoffset:0;stroke-opacity:1;marker:none;marker-start:none;marker-mid:none;marker-end:none;paint-order:normal;enable-background:new" /><rect
           ry="2.096508"
           rx="2.096508"
           y="141.94769"
           x="35.585205"
           height="27.254602"
           width="27.254602"
           id="rect70"
           style="display:inline;opacity:0.2;fill:none;fill-opacity:1;stroke:currentColor;stroke-width:0.261937;stroke-linecap:butt;stroke-linejoin:miter;stroke-miterlimit:4;stroke-dasharray:none;stroke-dashoffset:0;stroke-opacity:1;marker:none;marker-start:none;marker-mid:none;marker-end:none;paint-order:normal;enable-background:new" /></g><g
         id="g100"
         transform="translate(-23.547914,-11.377075)"><rect
           style="display:inline;fill:#464153;fill-opacity:1;stroke:none;stroke-width:0.0661458;stroke-linecap:butt;stroke-linejoin:miter;stroke-miterlimit:4;stroke-dasharray:none;stroke-dashoffset:0;stroke-opacity:1;marker:none;marker-start:none;marker-mid:none;marker-end:none;paint-order:normal;enable-background:new"
           id="rect71"
           width="16.933334"
           height="10.054167"
           x="64.293747"
           y="132.02707"
           rx="2.1166668"
           ry="2.1166668" /><rect
           ry="2.1166668"
           rx="2.1166668"
           y="120.91457"
           x="63.235416"
           height="21.166668"
           width="19.050001"
           id="rect72"
           style="display:inline;fill:url(#linearGradient100);fill-opacity:1;stroke:none;stroke-width:0.0661458;stroke-linecap:butt;stroke-linejoin:miter;stroke-miterlimit:4;stroke-dasharray:none;stroke-dashoffset:0;stroke-opacity:1;marker:none;marker-start:none;marker-mid:none;marker-end:none;paint-order:normal;enable-background:new" /><rect
           style="display:inline;fill:url(#linearGradient101);fill-opacity:1;stroke:none;stroke-width:0.0661458;stroke-linecap:butt;stroke-linejoin:miter;stroke-miterlimit:4;stroke-dasharray:none;stroke-dashoffset:0;stroke-opacity:1;marker:none;marker-start:none;marker-mid:none;marker-end:none;paint-order:normal;enable-background:new"
           id="rect73"
           width="19.050001"
           height="26.458334"
           x="63.235416"
           y="112.44791"
           rx="2.1166668"
           ry="2.1166666" /><rect
           ry="1.058334"
           rx="1.0583341"
           y="113.50624"
           x="64.293747"
           height="24.341665"
           width="16.933334"
           id="rect74"
           style="display:inline;fill:#3d3846;fill-opacity:1;stroke:none;stroke-width:0.0661458;stroke-linecap:butt;stroke-linejoin:miter;stroke-miterlimit:4;stroke-dasharray:none;stroke-dashoffset:0;stroke-opacity:1;marker:none;marker-start:none;marker-mid:none;marker-end:none;paint-order:normal;enable-background:new" /><rect
           ry="0.26458335"
           rx="0.26458335"
           y="114.56458"
           x="71.4375"
           height="0.5291667"
           width="2.6458335"
           id="rect75"
           style="display:inline;fill:#9a9996;fill-opacity:1;stroke:none;stroke-width:0.264583;stroke-linecap:round;stroke-linejoin:round;enable-background:new" /><g
           style="display:inline;stroke-width:0.707107;enable-background:new"
           transform="matrix(0.52916668,0,0,0.26458334,41.539582,64.822907)"
           id="g78"><rect
             style="opacity:1;fill:#c0bfbc;fill-opacity:1;stroke:none;stroke-width:0.707105;stroke-linecap:round;stroke-linejoin:round"
             id="rect76"
             width="2"
             height="4"
             x="46"
             y="180" /><rect
             y="276"
             x="46"
             height="4"
             width="2"
             id="rect77"
             style="opacity:1;fill:#deddda;fill-opacity:1;stroke:none;stroke-width:0.707105;stroke-linecap:round;stroke-linejoin:round" /><rect
             style="opacity:1;fill:#77767b;fill-opacity:1;stroke:none;stroke-width:0.707105;stroke-linecap:round;stroke-linejoin:round"
             id="rect78"
             width="2"
             height="12"
             x="46"
             y="-292"
             transform="scale(1,-1)" /></g><g
           style="display:inline;stroke-width:0.707107;enable-background:new"
           transform="matrix(0.52916668,0,0,0.26458334,36.247915,64.822907)"
           id="g81"><rect
             y="180"
             x="80"
             height="4"
             width="2"
             id="rect79"
             style="opacity:1;fill:#deddda;fill-opacity:1;stroke:none;stroke-width:0.707105;stroke-linecap:round;stroke-linejoin:round" /><rect
             style="opacity:1;fill:#c0bfbc;fill-opacity:1;stroke:none;stroke-width:0.707105;stroke-linecap:round;stroke-linejoin:round"
             id="rect80"
             width="2"
             height="4"
             x="80"
             y="276" /><rect
             transform="scale(1,-1)"
             y="-292"
             x="80"
             height="12"
             width="2"
             id="rect81"
             style="opacity:1;fill:#77767b;fill-opacity:1;stroke:none;stroke-width:0.707105;stroke-linecap:round;stroke-linejoin:round" /></g><rect
           style="display:inline;fill:#241f31;fill-opacity:1;stroke:none;stroke-width:0.264583;stroke-linecap:round;stroke-linejoin:round;enable-background:new"
           id="rect82"
           width="2.6458335"
           height="1.3229167"
           x="71.4375"
           y="139.7"
           rx="0.66145837"
           ry="0.66145837" /><path
           sodipodi:nodetypes="csssscssc"
           inkscape:connector-curvature="0"
           d="m 71.450935,140.22916 c -0.0086,0.0427 -0.01344,0.087 -0.01344,0.13229 0,0.36645 0.29501,0.66146 0.661458,0.66146 h 1.322917 c 0.366448,0 0.661458,-0.29501 0.661458,-0.66146 0,-0.0453 -0.0048,-0.0896 -0.01344,-0.13229 -0.06091,0.3027 -0.326855,0.52917 -0.648023,0.52917 h -1.322916 c -0.321167,0 -0.587117,-0.22647 -0.648023,-0.52917 z"
           style="display:inline;fill:#9a9996;fill-opacity:1;stroke:none;stroke-width:0.264583;stroke-linecap:round;stroke-linejoin:round;enable-background:new"
           id="path82" /><g
           transform="matrix(0.26458334,0,0,0.26458334,55.827082,64.955199)"
           id="g86"
           style="display:inline;enable-background:new"><path
             inkscape:connector-curvature="0"
             id="path83"
             style="display:inline;fill:#241f31;fill-opacity:1;stroke:none;stroke-width:1;stroke-linecap:round;stroke-linejoin:round;enable-background:new"
             d="m 54.5,127.5 a 1.5,1.5 0 0 0 -1.5,1.5 1.5,1.5 0 0 0 1.5,1.5 1.5,1.5 0 0 0 1.5,-1.5 1.5,1.5 0 0 0 -1.5,-1.5 z m 4,0 a 1.5,1.5 0 0 0 -1.5,1.5 1.5,1.5 0 0 0 1.5,1.5 1.5,1.5 0 0 0 1.5,-1.5 1.5,1.5 0 0 0 -1.5,-1.5 z m 4,0 a 1.5,1.5 0 0 0 -1.5,1.5 1.5,1.5 0 0 0 1.5,1.5 1.5,1.5 0 0 0 1.5,-1.5 1.5,1.5 0 0 0 -1.5,-1.5 z"
             transform="translate(-8,156)" /><g
             transform="translate(27)"
             id="g85"><circle
               r="1.5"
               cy="285"
               cx="46.5"
               style="display:inline;fill:#241f31;fill-opacity:1;stroke:none;stroke-width:1;stroke-linecap:round;stroke-linejoin:round;enable-background:new"
               id="circle83" /><circle
               id="circle84"
               style="display:inline;fill:#241f31;fill-opacity:1;stroke:none;stroke-width:1;stroke-linecap:round;stroke-linejoin:round;enable-background:new"
               cx="50.5"
               cy="285"
               r="1.5" /><circle
               r="1.5"
               cy="285"
               cx="54.5"
               style="display:inline;fill:#241f31;fill-opacity:1;stroke:none;stroke-width:1;stroke-linecap:round;stroke-linejoin:round;enable-background:new"
               id="circle85" /></g><path
             inkscape:connector-curvature="0"
             id="path85"
             style="display:inline;fill:#9a9996;fill-opacity:1;stroke:none;stroke-width:1;stroke-linecap:round;stroke-linejoin:round;enable-background:new"
             d="M 55.914062,128.49805 A 1.5,1.5 0 0 1 54.5,129.5 1.5,1.5 0 0 1 53.085938,128.50195 1.5,1.5 0 0 0 53,129 a 1.5,1.5 0 0 0 1.5,1.5 1.5,1.5 0 0 0 1.5,-1.5 1.5,1.5 0 0 0 -0.08594,-0.50195 z m 4,0 A 1.5,1.5 0 0 1 58.5,129.5 1.5,1.5 0 0 1 57.085938,128.50195 1.5,1.5 0 0 0 57,129 a 1.5,1.5 0 0 0 1.5,1.5 1.5,1.5 0 0 0 1.5,-1.5 1.5,1.5 0 0 0 -0.08594,-0.50195 z m 4,0 A 1.5,1.5 0 0 1 62.5,129.5 1.5,1.5 0 0 1 61.085938,128.50195 1.5,1.5 0 0 0 61,129 a 1.5,1.5 0 0 0 1.5,1.5 1.5,1.5 0 0 0 1.5,-1.5 1.5,1.5 0 0 0 -0.08594,-0.50195 z"
             transform="translate(-8,156)" /><path
             d="M 74.914062,284.49805 A 1.5,1.5 0 0 1 73.5,285.5 1.5,1.5 0 0 1 72.085938,284.50195 1.5,1.5 0 0 0 72,285 a 1.5,1.5 0 0 0 1.5,1.5 1.5,1.5 0 0 0 1.5,-1.5 1.5,1.5 0 0 0 -0.08594,-0.50195 z m 4,0 A 1.5,1.5 0 0 1 77.5,285.5 1.5,1.5 0 0 1 76.085938,284.50195 1.5,1.5 0 0 0 76,285 a 1.5,1.5 0 0 0 1.5,1.5 1.5,1.5 0 0 0 1.5,-1.5 1.5,1.5 0 0 0 -0.08594,-0.50195 z m 4,0 A 1.5,1.5 0 0 1 81.5,285.5 1.5,1.5 0 0 1 80.085938,284.50195 1.5,1.5 0 0 0 80,285 a 1.5,1.5 0 0 0 1.5,1.5 1.5,1.5 0 0 0 1.5,-1.5 1.5,1.5 0 0 0 -0.08594,-0.50195 z"
             style="display:inline;fill:#9a9996;fill-opacity:1;stroke:none;stroke-width:1;stroke-linecap:round;stroke-linejoin:round;enable-background:new"
             id="path86"
             inkscape:connector-curvature="0" /></g><circle
           r="1.5875001"
           cy="133.87917"
           cx="67.997917"
           id="circle86"
           style="display:inline;fill:#f8e45c;fill-opacity:1;stroke:none;stroke-width:0.264583;stroke-linecap:round;stroke-linejoin:round;enable-background:new" /><circle
           style="display:inline;fill:#33d17a;fill-opacity:1;stroke:none;stroke-width:0.264583;stroke-linecap:round;stroke-linejoin:round;enable-background:new"
           id="circle87"
           cx="72.760414"
           cy="133.87917"
           r="1.5875001" /><circle
           style="display:inline;fill:#ed333b;fill-opacity:1;stroke:none;stroke-width:0.264583;stroke-linecap:round;stroke-linejoin:round;enable-background:new"
           id="circle88"
           cx="77.522919"
           cy="133.87917"
           r="1.5875001" /><circle
           style="display:inline;fill:#ed333b;fill-opacity:1;stroke:none;stroke-width:0.264583;stroke-linecap:round;stroke-linejoin:round;enable-background:new"
           id="circle90"
           cx="67.997917"
           cy="128.85208"
           r="1.5875001" /><circle
           r="1.5875001"
           cy="128.85208"
           cx="72.760414"
           id="circle92"
           style="display:inline;fill:#62a0ea;fill-opacity:1;stroke:none;stroke-width:0.264583;stroke-linecap:round;stroke-linejoin:round;enable-background:new" /><circle
           r="1.5875001"
           cy="128.85208"
           cx="77.522919"
           id="circle93"
           style="display:inline;fill:#33d17a;fill-opacity:1;stroke:none;stroke-width:0.264583;stroke-linecap:round;stroke-linejoin:round;enable-background:new" /><circle
           r="1.5875001"
           cy="123.82499"
           cx="67.997917"
           id="circle94"
           style="display:inline;fill:#33d17a;fill-opacity:1;stroke:none;stroke-width:0.264583;stroke-linecap:round;stroke-linejoin:round;enable-background:new" /><circle
           style="display:inline;fill:#deddda;fill-opacity:1;stroke:none;stroke-width:0.264583;stroke-linecap:round;stroke-linejoin:round;enable-background:new"
           id="circle95"
           cx="72.760414"
           cy="123.82499"
           r="1.5875001" /><circle
           style="display:inline;fill:#f8e45c;fill-opacity:1;stroke:none;stroke-width:0.264583;stroke-linecap:round;stroke-linejoin:round;enable-background:new"
           id="circle96"
           cx="77.522919"
           cy="123.82499"
           r="1.5875001" /><circle
           style="display:inline;fill:#62a0ea;fill-opacity:1;stroke:none;stroke-width:0.264583;stroke-linecap:round;stroke-linejoin:round;enable-background:new"
           id="circle97"
           cx="67.997917"
           cy="118.7979"
           r="1.5875001" /><circle
           r="1.5875001"
           cy="118.7979"
           cx="72.760414"
           id="circle98"
           style="display:inline;fill:#ed333b;fill-opacity:1;stroke:none;stroke-width:0.264583;stroke-linecap:round;stroke-linejoin:round;enable-background:new" /><circle
           r="1.5875001"
           cy="118.7979"
           cx="77.522919"
           id="circle99"
           style="display:inline;fill:#deddda;fill-opacity:1;stroke:none;stroke-width:0.264583;stroke-linecap:round;stroke-linejoin:round;enable-background:new" /></g></g></g></svg>
