<?xml version="1.0" encoding="UTF-8"?>
<svg xmlns="http://www.w3.org/2000/svg" xmlns:xlink="http://www.w3.org/1999/xlink" width="400" height="300" viewBox="0 0 400 300">
<defs>
<linearGradient id="linear-pattern-0" gradientUnits="userSpaceOnUse" x1="195" y1="245" x2="220.318146" y2="245">
<stop offset="0" stop-color="rgb(75.294118%, 38.039216%, 79.607843%)" stop-opacity="1"/>
<stop offset="0.25" stop-color="rgb(83.529412%, 50.196078%, 85.098039%)" stop-opacity="1"/>
<stop offset="0.475923" stop-color="rgb(89.411765%, 46.27451%, 90.980392%)" stop-opacity="1"/>
<stop offset="0.651856" stop-color="rgb(86.27451%, 38.823529%, 86.666667%)" stop-opacity="1"/>
<stop offset="0.750147" stop-color="rgb(69.019608%, 31.764706%, 76.470588%)" stop-opacity="1"/>
<stop offset="1" stop-color="rgb(57.254902%, 27.45098%, 69.411765%)" stop-opacity="1"/>
</linearGradient>
<linearGradient id="linear-pattern-1" gradientUnits="userSpaceOnUse" x1="50.665462" y1="185.276184" x2="80.188751" y2="153.665512">
<stop offset="0" stop-color="rgb(20%, 81.960784%, 47.843137%)" stop-opacity="1"/>
<stop offset="1" stop-color="rgb(20.784314%, 51.764706%, 89.411765%)" stop-opacity="1"/>
</linearGradient>
<linearGradient id="linear-pattern-2" gradientUnits="userSpaceOnUse" x1="75.478439" y1="110.048149" x2="101.14254" y2="95.169777" gradientTransform="matrix(1.465712, 0.0000000130893, -0.0000000130893, 1.465712, -40.716331, -51.686543)">
<stop offset="0" stop-color="rgb(87.843137%, 10.588235%, 14.117647%)" stop-opacity="1"/>
<stop offset="1" stop-color="rgb(77.647059%, 27.45098%, 0%)" stop-opacity="1"/>
</linearGradient>
<linearGradient id="linear-pattern-3" gradientUnits="userSpaceOnUse" x1="234.203476" y1="33.889435" x2="261.096802" y2="43.927826" gradientTransform="matrix(1.173253, 0, 0, 1.173253, -46.783829, -3.630324)">
<stop offset="0" stop-color="rgb(100%, 47.058824%, 0%)" stop-opacity="1"/>
<stop offset="1" stop-color="rgb(96.470588%, 82.745098%, 17.647059%)" stop-opacity="1"/>
</linearGradient>
<linearGradient id="linear-pattern-4" gradientUnits="userSpaceOnUse" x1="298.555542" y1="41.752674" x2="343.707581" y2="65.49276">
<stop offset="0" stop-color="rgb(20.784314%, 51.764706%, 89.411765%)" stop-opacity="1"/>
<stop offset="1" stop-color="rgb(60%, 75.686275%, 94.509804%)" stop-opacity="1"/>
</linearGradient>
</defs>
<path fill-rule="nonzero" fill="rgb(100%, 100%, 100%)" fill-opacity="1" d="M 195 169.734375 L 195 116.421875 C 195 115.375 195.824219 114.515625 196.867188 114.472656 C 197.910156 114.425781 198.804688 115.210938 198.894531 116.253906 L 204 175.332031 L 204 275 L 201.714844 259.765625 C 197.246094 229.964844 195 199.867188 195 169.734375 Z M 195 169.734375 "/>
<path fill-rule="nonzero" fill="rgb(96.470588%, 96.078431%, 95.686275%)" fill-opacity="1" d="M 170.796875 232.042969 L 170.796875 120.46875 C 170.796875 119.195312 171.691406 118.09375 172.941406 117.832031 C 174.191406 117.574219 175.449219 118.226562 175.957031 119.398438 L 200 174.777344 L 200 275 L 179.835938 254.285156 C 174.039062 248.332031 170.796875 240.351562 170.796875 232.042969 Z M 170.796875 232.042969 "/>
<path fill-rule="nonzero" fill="rgb(87.058824%, 86.666667%, 85.490196%)" fill-opacity="1" d="M 148 245 L 148 128.855469 C 148 127.722656 148.6875 126.707031 149.734375 126.289062 C 150.785156 125.867188 151.984375 126.125 152.765625 126.941406 L 198 174.207031 L 198 275 Z M 148 245 "/>
<path fill-rule="nonzero" fill="rgb(87.058824%, 86.666667%, 85.490196%)" fill-opacity="1" d="M 224 244.355469 L 224 117.859375 C 224 116.414062 222.921875 115.195312 221.484375 115.019531 C 220.050781 114.84375 218.710938 115.769531 218.363281 117.171875 L 204 175.332031 L 204 275 Z M 224 244.355469 "/>
<path fill-rule="nonzero" fill="rgb(75.294118%, 74.901961%, 73.72549%)" fill-opacity="1" d="M 249.570312 245 L 249.570312 123.144531 C 249.570312 121.582031 248.558594 120.199219 247.074219 119.722656 C 245.585938 119.242188 243.960938 119.777344 243.046875 121.042969 L 204 175.332031 L 204 275 Z M 249.570312 245 "/>
<path fill-rule="nonzero" fill="rgb(60.392157%, 60%, 58.823529%)" fill-opacity="1" d="M 270.378906 245 L 270.378906 136.390625 C 270.378906 134.378906 269.214844 132.550781 267.390625 131.699219 C 265.570312 130.847656 263.417969 131.128906 261.875 132.421875 L 212 174.207031 L 212 275 Z M 270.378906 245 "/>
<path fill-rule="nonzero" fill="rgb(86.27451%, 54.117647%, 86.666667%)" fill-opacity="1" d="M 130.042969 137.289062 C 127.042969 137.417969 125 139.921875 125 144.160156 L 125 241.839844 C 125 248.746094 128.683594 255.128906 134.667969 258.582031 L 194.820312 293.308594 C 201.121094 296.945312 208.878906 296.945312 215.179688 293.308594 L 275.332031 258.582031 C 281.316406 255.128906 285 248.746094 285 241.839844 L 285 144.160156 C 285 137.996094 280.804688 135.730469 275.371094 138.636719 L 215.363281 170.753906 C 208.890625 174.21875 201.109375 174.21875 194.636719 170.753906 L 134.628906 138.636719 C 132.929688 137.730469 131.410156 137.226562 130.042969 137.289062 Z M 130.042969 137.289062 "/>
<path fill-rule="nonzero" fill="url(#linear-pattern-0)" d="M 130.042969 139.289062 C 127.042969 139.417969 125 141.921875 125 146.160156 L 125 243.839844 C 125 250.746094 128.683594 257.128906 134.667969 260.582031 L 194.820312 295.308594 C 201.121094 298.945312 208.878906 298.945312 215.179688 295.308594 L 275.332031 260.582031 C 281.316406 257.128906 285 250.746094 285 243.839844 L 285 146.160156 C 285 139.996094 280.804688 137.730469 275.371094 140.636719 L 215.363281 172.753906 C 208.890625 176.21875 201.109375 176.21875 194.636719 172.753906 L 134.628906 140.636719 C 132.929688 139.730469 131.410156 139.226562 130.042969 139.289062 Z M 130.042969 139.289062 "/>
<path fill-rule="nonzero" fill="rgb(100%, 100%, 100%)" fill-opacity="1" d="M 251.015625 203.316406 C 251.015625 208.851562 247.59375 215.570312 243.367188 218.328125 C 239.140625 221.082031 235.714844 218.828125 235.714844 213.292969 C 235.714844 207.757812 239.140625 201.035156 243.367188 198.28125 C 247.59375 195.527344 251.015625 197.78125 251.015625 203.316406 Z M 251.015625 203.316406 "/>
<path fill-rule="nonzero" fill="rgb(100%, 100%, 100%)" fill-opacity="1" d="M 240.070312 223.914062 L 246.546875 219.691406 C 248.597656 218.351562 250.25 219.441406 250.25 222.125 L 250.25 230.609375 C 250.25 233.296875 248.597656 236.535156 246.546875 237.871094 L 240.070312 242.09375 C 238.023438 243.429688 236.371094 242.34375 236.371094 239.65625 L 236.371094 231.171875 C 236.371094 228.488281 238.023438 225.25 240.070312 223.914062 Z M 240.070312 223.914062 "/>
<path fill-rule="nonzero" fill="rgb(100%, 100%, 100%)" fill-opacity="1" d="M 267.847656 189.832031 L 266.453125 189.6875 L 258.429688 188.847656 C 257.746094 188.777344 256.90625 189.324219 256.222656 190.289062 C 255.539062 191.25 255.117188 192.480469 255.117188 193.515625 L 255.117188 207.761719 C 255.117188 208.796875 255.539062 209.476562 256.222656 209.546875 C 256.90625 209.621094 257.746094 209.070312 258.429688 208.105469 L 259.824219 206.144531 L 267.847656 194.84375 C 268.53125 193.882812 268.953125 192.652344 268.953125 191.617188 C 268.953125 190.582031 268.53125 189.902344 267.847656 189.832031 Z M 267.847656 189.832031 "/>
<path fill-rule="nonzero" fill="rgb(100%, 100%, 100%)" fill-opacity="1" d="M 267.300781 215.367188 C 267.300781 216.34375 266.703125 217.515625 265.957031 218 L 255.21875 225.003906 C 254.476562 225.488281 253.875 225.09375 253.875 224.121094 C 253.875 223.144531 254.476562 221.972656 255.21875 221.484375 L 265.957031 214.484375 C 266.703125 214 267.300781 214.394531 267.300781 215.367188 Z M 260.589844 210.953125 C 261.332031 210.464844 261.929688 210.859375 261.929688 211.835938 L 261.929688 225.902344 C 261.929688 226.878906 261.332031 228.050781 260.589844 228.535156 C 259.84375 229.023438 259.246094 228.628906 259.246094 227.652344 L 259.246094 213.585938 C 259.246094 212.609375 259.84375 211.4375 260.589844 210.953125 Z M 260.589844 210.953125 "/>
<path fill="none" stroke-width="1" stroke-linecap="butt" stroke-linejoin="miter" stroke="rgb(86.27451%, 54.117647%, 86.666667%)" stroke-opacity="1" stroke-miterlimit="4" d="M 195 177.707031 L 195 292.707031 "/>
<path fill="none" stroke-width="1" stroke-linecap="butt" stroke-linejoin="miter" stroke="rgb(38.039216%, 20.784314%, 51.372549%)" stroke-opacity="1" stroke-miterlimit="4" d="M 215.5 177.707031 L 215.5 292.707031 "/>
<path fill-rule="nonzero" fill="url(#linear-pattern-1)" stroke-width="0.0112982" stroke-linecap="butt" stroke-linejoin="miter" stroke="rgb(75.294118%, 74.901961%, 73.72549%)" stroke-opacity="1" stroke-miterlimit="4" d="M 88.84375 164.570312 C 88.84375 179.378906 76.839844 191.382812 62.03125 191.382812 C 47.222656 191.382812 35.21875 179.378906 35.21875 164.570312 C 35.21875 149.761719 47.222656 137.757812 62.03125 137.757812 C 76.839844 137.757812 88.84375 149.761719 88.84375 164.570312 Z M 88.84375 164.570312 "/>
<path fill-rule="nonzero" fill="url(#linear-pattern-2)" stroke-width="0.0165599" stroke-linecap="butt" stroke-linejoin="miter" stroke="rgb(75.294118%, 74.901961%, 73.72549%)" stroke-opacity="1" stroke-miterlimit="4" d="M 75.209526 47.818889 L 107.910298 47.818947 C 120.619212 47.820824 130.920483 58.12314 130.919747 70.828318 L 130.919689 103.52909 C 130.921548 116.239144 120.619232 126.540415 107.910318 126.538539 L 75.209546 126.538481 C 62.503228 126.541481 52.198221 116.238024 52.200097 103.52911 L 52.200155 70.828338 C 52.200892 58.12316 62.503208 47.821889 75.209526 47.818889 Z M 75.209526 47.818889 " transform="matrix(0.956471, -0.291829, 0.291829, 0.956471, 0, 0)"/>
<path fill-rule="nonzero" fill="url(#linear-pattern-3)" d="M 264.464844 33.523438 L 259.03125 31.71875 L 227.773438 21.339844 C 225.109375 20.457031 222.226562 21.109375 220.210938 23.058594 C 218.195312 25.003906 217.355469 27.945312 218.003906 30.777344 L 219.324219 36.546875 L 226.929688 69.761719 C 227.578125 72.59375 229.621094 74.878906 232.285156 75.765625 C 234.949219 76.648438 237.828125 75.996094 239.84375 74.050781 L 243.957031 70.082031 L 267.605469 47.242188 C 269.621094 45.296875 270.464844 42.355469 269.816406 39.523438 C 269.167969 36.695312 267.128906 34.40625 264.464844 33.523438 Z M 264.464844 33.523438 "/>
<path fill-rule="nonzero" fill="url(#linear-pattern-4)" stroke-width="0.0112982" stroke-linecap="butt" stroke-linejoin="miter" stroke="rgb(75.294118%, 74.901961%, 73.72549%)" stroke-opacity="1" stroke-miterlimit="4" d="M 341.11144 70.036033 L 332.394635 67.077726 C 325.180498 64.632538 317.361186 64.632498 310.148021 67.079109 L 301.430917 70.037565 C 299.341788 70.746177 297.03166 70.205691 295.472644 68.648705 C 293.912489 67.086313 293.37495 64.777632 294.083505 62.688951 L 297.041812 53.972146 C 299.487 46.758009 299.48704 38.938697 297.040428 31.725532 L 294.081972 23.008428 C 293.37336 20.919298 293.911713 18.612443 295.470833 17.050155 C 297.033224 15.49 299.341906 14.952461 301.430587 15.661016 L 310.147392 18.619323 C 317.359396 21.067783 325.178708 21.067823 332.394005 18.617939 L 341.108977 15.662755 C 343.198106 14.954144 345.507094 15.489224 347.06725 17.051616 C 348.629538 18.610735 349.167077 20.919417 348.458522 23.008098 L 345.500215 31.724903 C 343.051754 38.936907 343.051714 46.756218 345.501598 53.971516 L 348.456782 62.686488 C 349.165394 64.775617 348.628181 67.087878 347.067922 68.64476 C 345.508802 70.207049 343.200121 70.744588 341.11144 70.036033 Z M 341.11144 70.036033 " transform="matrix(0.837767, -0.546028, 0.546028, 0.837767, 47.838076, 245.113854)"/>
</svg>
