<?xml version="1.0" encoding="UTF-8" standalone="no"?>
<!-- Created with Inkscape (http://www.inkscape.org/) -->

<svg
   width="1280"
   height="720"
   viewBox="0 0 1280 720"
   version="1.1"
   id="svg1"
   xml:space="preserve"
   inkscape:version="1.4 (e7c3feb100, 2024-10-09)"
   sodipodi:docname="safety.svg"
   inkscape:export-filename="safety.png"
   inkscape:export-xdpi="144"
   inkscape:export-ydpi="144"
   xmlns:inkscape="http://www.inkscape.org/namespaces/inkscape"
   xmlns:sodipodi="http://sodipodi.sourceforge.net/DTD/sodipodi-0.dtd"
   xmlns="http://www.w3.org/2000/svg"
   xmlns:svg="http://www.w3.org/2000/svg"><sodipodi:namedview
     id="namedview1"
     pagecolor="#ffffff"
     bordercolor="#000000"
     borderopacity="0.25"
     inkscape:showpageshadow="2"
     inkscape:pageopacity="0.0"
     inkscape:pagecheckerboard="0"
     inkscape:deskcolor="#d1d1d1"
     inkscape:document-units="px"
     inkscape:zoom="0.27149334"
     inkscape:cx="456.73312"
     inkscape:cy="143.64993"
     inkscape:window-width="1728"
     inkscape:window-height="1011"
     inkscape:window-x="0"
     inkscape:window-y="0"
     inkscape:window-maximized="1"
     inkscape:current-layer="layer1" /><defs
     id="defs1" /><g
     inkscape:label="Layer 1"
     inkscape:groupmode="layer"
     id="layer1"><rect
       style="opacity:1;fill:#4a90d9;stroke-width:293.047;stroke-linejoin:round"
       id="rect2"
       width="1280"
       height="720"
       x="0"
       y="0" /><path
       d="m 640.00001,61.33334 c -93.83339,0 -170.66667,76.83328 -170.66667,170.66666 v 85.33333 C 422.00021,317.33333 384,355.33313 384,402.66667 v 213.33336 c 0,23.66677 18.99989,42.66663 42.66667,42.66663 H 853.33333 C 877.0001,658.66666 896,639.6668 896,616.00003 V 402.66667 c 0,-47.33354 -37.99979,-85.33334 -85.33334,-85.33334 V 232 c 0,-93.83338 -76.83327,-170.66666 -170.66665,-170.66666 z m 0,85.33334 c 48,0 85.33332,37.33333 85.33332,85.33332 v 85.33333 H 554.66667 V 232 c 0,-47.99999 37.33333,-85.33332 85.33334,-85.33332 z m 0,0"
       fill="#222222"
       id="path1-7"
       style="fill:#ffffff;stroke-width:42.6666" /><g
       transform="matrix(6.5133539,0,0,6.5133539,-508.78269,-195.62248)"
       fill="#ffffff"
       id="g2"
       style="fill:#4a90d9;fill-opacity:1"><circle
         cx="166.69"
         cy="95.647003"
         r="9.0478001"
         stroke-width="0.58767"
         id="circle1"
         style="fill:#4a90d9;fill-opacity:1" /><rect
         x="158.41"
         y="107.8"
         width="16.412001"
         height="16.412001"
         rx="1.1433514"
         ry="1.1433514"
         stroke-width="0.58767"
         id="rect1"
         style="fill:#4a90d9;fill-opacity:1" /><path
         transform="matrix(0.9259,0.53457,0.53457,-0.9259,99.826,110.69)"
         d="m 69.514,58.833 h -1.7806 -10.247 a 2.4441,2.4441 60 0 1 -2.1167,-3.6662 l 6.0139,-10.416 a 2.4441,2.4441 2.522e-7 0 1 4.2333,0 l 6.0139,10.416 a 2.4441,2.4441 120 0 1 -2.1167,3.6662 z"
         stroke-width="0.55348"
         id="path1"
         style="fill:#4a90d9;fill-opacity:1" /><path
         d="m 194.99,116.11 c 0,0.87946 -0.70801,1.5875 -1.5875,1.5875 h -12.7 c -0.87946,0 -1.5875,-0.70802 -1.5875,-1.5875 0,-0.87948 0.70802,-1.5875 1.5875,-1.5875 h 12.7 c 0.87946,0 1.5875,0.70801 1.5875,1.5875 z m -7.9375,-7.9375 c 0.87946,0 1.5875,0.70802 1.5875,1.5875 v 12.7 c 0,0.87946 -0.70802,1.5875 -1.5875,1.5875 -0.87947,0 -1.5875,-0.70802 -1.5875,-1.5875 v -12.7 c 0,-0.87947 0.70802,-1.5875 1.5875,-1.5875 z"
         stroke-width="5.8767"
         id="path2"
         style="fill:#4a90d9;fill-opacity:1" /></g></g></svg>
