<?xml version="1.0" encoding="UTF-8" standalone="no"?>
<svg
   id="svg8"
   version="1.1"
   viewBox="0 0 738 280"
   height="280"
   width="738"
   sodipodi:docname="verified-alt.svg"
   inkscape:version="1.4 (e7c3feb100, 2024-10-09)"
   inkscape:export-filename="verified-alt.png"
   inkscape:export-xdpi="177.12"
   inkscape:export-ydpi="177.12"
   xmlns:inkscape="http://www.inkscape.org/namespaces/inkscape"
   xmlns:sodipodi="http://sodipodi.sourceforge.net/DTD/sodipodi-0.dtd"
   xmlns="http://www.w3.org/2000/svg"
   xmlns:svg="http://www.w3.org/2000/svg"
   xmlns:rdf="http://www.w3.org/1999/02/22-rdf-syntax-ns#"
   xmlns:cc="http://creativecommons.org/ns#"
   xmlns:dc="http://purl.org/dc/elements/1.1/">
  <sodipodi:namedview
     id="namedview1"
     pagecolor="#ffffff"
     bordercolor="#000000"
     borderopacity="0.25"
     inkscape:showpageshadow="2"
     inkscape:pageopacity="0.0"
     inkscape:pagecheckerboard="0"
     inkscape:deskcolor="#d1d1d1"
     inkscape:zoom="0.70889827"
     inkscape:cx="249.68322"
     inkscape:cy="369.58759"
     inkscape:window-width="1728"
     inkscape:window-height="1011"
     inkscape:window-x="0"
     inkscape:window-y="0"
     inkscape:window-maximized="1"
     inkscape:current-layer="svg8" />
  <defs
     id="defs2" />
  <metadata
     id="metadata5">
    <rdf:RDF>
      <cc:Work
         rdf:about="">
        <dc:format>image/svg+xml</dc:format>
        <dc:type
           rdf:resource="http://purl.org/dc/dcmitype/StillImage" />
        <cc:license
           rdf:resource="http://creativecommons.org/licenses/by-sa/4.0/" />
      </cc:Work>
      <cc:License
         rdf:about="http://creativecommons.org/licenses/by-sa/4.0/">
        <cc:permits
           rdf:resource="http://creativecommons.org/ns#Reproduction" />
        <cc:permits
           rdf:resource="http://creativecommons.org/ns#Distribution" />
        <cc:requires
           rdf:resource="http://creativecommons.org/ns#Notice" />
        <cc:requires
           rdf:resource="http://creativecommons.org/ns#Attribution" />
        <cc:permits
           rdf:resource="http://creativecommons.org/ns#DerivativeWorks" />
        <cc:requires
           rdf:resource="http://creativecommons.org/ns#ShareAlike" />
      </cc:License>
    </rdf:RDF>
  </metadata>
  <g
     id="g3"
     transform="matrix(1.845,0,0,1.845,-431.00001,-116)">
    <g
       id="g1"
       transform="matrix(2.8905246,0,0,2.8905246,138.41211,-150.29907)"
       style="fill:#4a8fd9;fill-opacity:1">
      <path
         fill-rule="evenodd"
         d="m 121.33209,107.955 a 8.9988614,8.9988614 0 0 0 0,-15.909989 8.9988614,8.9988614 0 0 0 -11.24857,-11.251581 8.9988614,8.9988614 0 0 0 -15.912987,0 8.9988614,8.9988614 0 0 0 -11.25158,11.248581 8.9988614,8.9988614 0 0 0 0,15.912989 8.9988614,8.9988614 0 0 0 11.24858,11.25157 8.9988614,8.9988614 0 0 0 15.912987,0 8.9988614,8.9988614 0 0 0 11.25157,-11.24857 z m -7.63703,-13.37831 a 2.2514588,2.2514588 0 0 0 -3.64154,-2.648669 l -10.447677,14.368189 -5.63928,-5.63929 a 2.2497153,2.2497153 0 1 0 -3.1796,3.1826 l 7.49905,7.49905 a 2.2497153,2.2497153 0 0 0 3.410567,-0.26697 l 11.99848,-16.49791 z"
         clip-rule="evenodd"
         id="path1"
         style="fill:#4a8fd9;fill-opacity:1;stroke-width:2.99962" />
    </g>
  </g>
</svg>
