<?xml version="1.0" encoding="UTF-8" standalone="no"?>
<svg
   id="svg8"
   version="1.1"
   viewBox="0 0 800 256"
   height="256"
   width="800"
   sodipodi:docname="verified.svg"
   inkscape:version="1.4 (e7c3feb100, 2024-10-09)"
   inkscape:export-filename="verified.png"
   inkscape:export-xdpi="177.12"
   inkscape:export-ydpi="177.12"
   xmlns:inkscape="http://www.inkscape.org/namespaces/inkscape"
   xmlns:sodipodi="http://sodipodi.sourceforge.net/DTD/sodipodi-0.dtd"
   xmlns="http://www.w3.org/2000/svg"
   xmlns:svg="http://www.w3.org/2000/svg"
   xmlns:rdf="http://www.w3.org/1999/02/22-rdf-syntax-ns#"
   xmlns:cc="http://creativecommons.org/ns#"
   xmlns:dc="http://purl.org/dc/elements/1.1/">
  <sodipodi:namedview
     id="namedview1"
     pagecolor="#ffffff"
     bordercolor="#000000"
     borderopacity="0.25"
     inkscape:showpageshadow="2"
     inkscape:pageopacity="0.0"
     inkscape:pagecheckerboard="0"
     inkscape:deskcolor="#d1d1d1"
     inkscape:zoom="0.70889827"
     inkscape:cx="249.68321"
     inkscape:cy="366.7663"
     inkscape:window-width="1728"
     inkscape:window-height="1011"
     inkscape:window-x="0"
     inkscape:window-y="0"
     inkscape:window-maximized="1"
     inkscape:current-layer="svg8" />
  <defs
     id="defs2" />
  <metadata
     id="metadata5">
    <rdf:RDF>
      <cc:Work
         rdf:about="">
        <dc:format>image/svg+xml</dc:format>
        <dc:type
           rdf:resource="http://purl.org/dc/dcmitype/StillImage" />
        <cc:license
           rdf:resource="http://creativecommons.org/licenses/by-sa/4.0/" />
      </cc:Work>
      <cc:License
         rdf:about="http://creativecommons.org/licenses/by-sa/4.0/">
        <cc:permits
           rdf:resource="http://creativecommons.org/ns#Reproduction" />
        <cc:permits
           rdf:resource="http://creativecommons.org/ns#Distribution" />
        <cc:requires
           rdf:resource="http://creativecommons.org/ns#Notice" />
        <cc:requires
           rdf:resource="http://creativecommons.org/ns#Attribution" />
        <cc:permits
           rdf:resource="http://creativecommons.org/ns#DerivativeWorks" />
        <cc:requires
           rdf:resource="http://creativecommons.org/ns#ShareAlike" />
      </cc:License>
    </rdf:RDF>
  </metadata>
  <g
     id="layer1"
     style="opacity:0.2;fill:#4a8fd9;fill-opacity:1"
     transform="scale(2)">
    <rect
       style="fill:#4a8fd9;fill-opacity:1;stroke:none;stroke-width:381.697;stroke-linejoin:round"
       id="rect1"
       width="400"
       height="128"
       x="0"
       y="0"
       rx="24"
       ry="24" />
  </g>
  <g
     id="g1"
     transform="matrix(1.9999984,0,0,1.9999984,-16.570079,-71.99984)"
     style="fill:#4a8fd9;fill-opacity:1">
    <path
       fill-rule="evenodd"
       d="m 121.33209,107.955 a 8.9988614,8.9988614 0 0 0 0,-15.909989 8.9988614,8.9988614 0 0 0 -11.24857,-11.251581 8.9988614,8.9988614 0 0 0 -15.912987,0 8.9988614,8.9988614 0 0 0 -11.25158,11.248581 8.9988614,8.9988614 0 0 0 0,15.912989 8.9988614,8.9988614 0 0 0 11.24858,11.25157 8.9988614,8.9988614 0 0 0 15.912987,0 8.9988614,8.9988614 0 0 0 11.25157,-11.24857 z m -7.63703,-13.37831 a 2.2514588,2.2514588 0 0 0 -3.64154,-2.648669 l -10.447677,14.368189 -5.63928,-5.63929 a 2.2497153,2.2497153 0 1 0 -3.1796,3.1826 l 7.49905,7.49905 a 2.2497153,2.2497153 0 0 0 3.410567,-0.26697 l 11.99848,-16.49791 z"
       clip-rule="evenodd"
       id="path1"
       style="fill:#4a8fd9;fill-opacity:1;stroke-width:2.99962" />
    <path
       style="font-weight:bold;font-size:56px;line-height:0.9;font-family:'Inter Variable';-inkscape-font-specification:'Inter Variable Bold';text-align:center;text-anchor:middle;stroke-width:94.4882;stroke-linejoin:round"
       d="M 154.96414,120.2207 140.66336,79.478516 h 9.16016 l 6.58984,19.824218 c 0.78385,2.460936 1.59505,5.140626 2.43359,8.039066 0.85677,2.88021 1.78646,6.02474 2.78907,9.43359 h -2.4336 c 0.96615,-3.40885 1.85938,-6.55338 2.67969,-9.43359 0.83854,-2.89844 1.63151,-5.57813 2.37891,-8.039066 l 6.37109,-19.824218 h 9.05078 l -14,40.742184 z m 36.5696,0.65625 c -2.91667,0 -5.45964,-0.63802 -7.62891,-1.91406 -2.15104,-1.29427 -3.82812,-3.08073 -5.03125,-5.35937 -1.18489,-2.27865 -1.77734,-4.8763 -1.77734,-7.79297 0,-2.95313 0.60156,-5.5599 1.80468,-7.820316 1.22136,-2.278645 2.89844,-4.065104 5.03125,-5.359375 2.13281,-1.294271 4.57552,-1.941406 7.32813,-1.941406 2.13281,0 4.0651,0.364583 5.79687,1.09375 1.73177,0.710937 3.22657,1.740885 4.48438,3.089844 1.25781,1.330729 2.22396,2.907552 2.89844,4.730469 0.69271,1.822914 1.03906,3.837234 1.03906,6.042964 v 2.16016 h -25.51172 v -5.14062 h 21.62891 l -3.63672,1.23046 c 0,-1.45833 -0.26432,-2.71614 -0.79297,-3.77343 -0.52865,-1.057294 -1.28516,-1.868493 -2.26953,-2.433597 -0.96615,-0.583333 -2.1237,-0.875 -3.47266,-0.875 -1.33073,0 -2.47916,0.291667 -3.44531,0.875 -0.96615,0.565104 -1.71354,1.376303 -2.24219,2.433597 -0.52865,1.05729 -0.79297,2.3151 -0.79297,3.77343 v 3.5 c 0,1.49479 0.26432,2.80729 0.79297,3.9375 0.54687,1.11198 1.33073,1.97787 2.35156,2.59766 1.02083,0.60156 2.2513,0.90234 3.69141,0.90234 1.05729,0 1.98698,-0.14583 2.78906,-0.4375 0.82031,-0.30989 1.50391,-0.73828 2.05078,-1.28515 0.56511,-0.56511 0.96615,-1.22136 1.20313,-1.96875 h 7.35547 c -0.34635,1.91406 -1.15755,3.60026 -2.4336,5.05859 -1.27604,1.45833 -2.88021,2.60677 -4.8125,3.44531 -1.93229,0.82031 -4.0651,1.23047 -6.39843,1.23047 z m 18.26562,-0.65625 V 91.345703 h 7.76563 v 4.921875 h 0.082 c 0.52865,-1.731771 1.35807,-3.016927 2.48828,-3.855469 1.13021,-0.838541 2.65234,-1.257812 4.56641,-1.257812 0.47395,0 0.90234,0.0091 1.28515,0.02734 0.40104,0 0.76562,0.0091 1.09375,0.02734 v 6.863282 c -0.29167,-0.01823 -0.77474,-0.04557 -1.44922,-0.08203 -0.65625,-0.03646 -1.33072,-0.05469 -2.02343,-0.05469 -1.09375,0 -2.07813,0.255208 -2.95313,0.765625 -0.875,0.492187 -1.55859,1.23047 -2.05078,2.214846 -0.49219,0.98438 -0.73828,2.20573 -0.73828,3.66406 v 15.64062 z m 21.18596,0 V 91.345703 h 8.06641 V 120.2207 Z m 4.01953,-32.511716 c -1.33073,0 -2.43359,-0.401042 -3.30859,-1.203125 -0.875,-0.820312 -1.3125,-1.85026 -1.3125,-3.089843 0,-1.239583 0.4375,-2.260417 1.3125,-3.0625 0.875,-0.820313 1.96875,-1.230469 3.28125,-1.230469 1.33073,0 2.43359,0.410156 3.30859,1.230469 0.875,0.802083 1.3125,1.822917 1.3125,3.0625 0,1.239583 -0.4375,2.269531 -1.3125,3.089843 -0.875,0.802083 -1.96875,1.203125 -3.28125,1.203125 z m 26.55078,3.636719 v 6.316406 H 242.38766 V 91.345703 Z M 247.61032,120.2207 V 87.599609 c 0,-1.804687 0.34635,-3.308593 1.03906,-4.511718 0.71094,-1.203125 1.75912,-2.105469 3.14453,-2.707032 1.38542,-0.601562 3.11719,-0.902343 5.19532,-0.902343 h 2.76172 1.80468 v 6.316406 h -1.23047 -1.5039 c -1.14844,0 -1.96875,0.246094 -2.46094,0.738281 -0.47396,0.473959 -0.71094,1.285157 -0.71094,2.433594 V 120.2207 Z m 17.88281,0 V 91.345703 h 8.06641 V 120.2207 Z m 4.01953,-32.511716 c -1.33073,0 -2.43359,-0.401042 -3.30859,-1.203125 -0.875,-0.820312 -1.3125,-1.85026 -1.3125,-3.089843 0,-1.239583 0.4375,-2.260417 1.3125,-3.0625 0.875,-0.820313 1.96875,-1.230469 3.28125,-1.230469 1.33073,0 2.43359,0.410156 3.30859,1.230469 0.875,0.802083 1.3125,1.822917 1.3125,3.0625 0,1.239583 -0.4375,2.269531 -1.3125,3.089843 -0.875,0.802083 -1.96875,1.203125 -3.28125,1.203125 z m 22.91407,33.167966 c -2.91667,0 -5.45964,-0.63802 -7.62891,-1.91406 -2.15104,-1.29427 -3.82812,-3.08073 -5.03125,-5.35937 -1.18489,-2.27865 -1.77734,-4.8763 -1.77734,-7.79297 0,-2.95313 0.60156,-5.5599 1.80468,-7.820316 1.22136,-2.278645 2.89844,-4.065104 5.03125,-5.359375 2.13281,-1.294271 4.57552,-1.941406 7.32813,-1.941406 2.13281,0 4.0651,0.364583 5.79687,1.09375 1.73177,0.710937 3.22657,1.740885 4.48438,3.089844 1.25781,1.330729 2.22396,2.907552 2.89844,4.730469 0.69271,1.822914 1.03906,3.837234 1.03906,6.042964 v 2.16016 h -25.51172 v -5.14062 h 21.62891 l -3.63672,1.23046 c 0,-1.45833 -0.26432,-2.71614 -0.79297,-3.77343 -0.52865,-1.057294 -1.28516,-1.868493 -2.26953,-2.433597 -0.96615,-0.583333 -2.1237,-0.875 -3.47266,-0.875 -1.33073,0 -2.47916,0.291667 -3.44531,0.875 -0.96615,0.565104 -1.71354,1.376303 -2.24219,2.433597 -0.52865,1.05729 -0.79297,2.3151 -0.79297,3.77343 v 3.5 c 0,1.49479 0.26432,2.80729 0.79297,3.9375 0.54687,1.11198 1.33073,1.97787 2.35156,2.59766 1.02083,0.60156 2.2513,0.90234 3.69141,0.90234 1.05729,0 1.98698,-0.14583 2.78906,-0.4375 0.82031,-0.30989 1.50391,-0.73828 2.05078,-1.28515 0.56511,-0.56511 0.96615,-1.22136 1.20313,-1.96875 h 7.35547 c -0.34635,1.91406 -1.15755,3.60026 -2.4336,5.05859 -1.27604,1.45833 -2.88021,2.60677 -4.8125,3.44531 -1.93229,0.82031 -4.0651,1.23047 -6.39843,1.23047 z m 29.5039,-0.0547 c -2.51562,0 -4.71223,-0.62891 -6.58984,-1.88672 -1.87761,-1.25781 -3.33594,-3.01693 -4.375,-5.27735 -1.02083,-2.26041 -1.53125,-4.89453 -1.53125,-7.90234 0,-2.97135 0.51953,-5.57812 1.55859,-7.820313 1.05729,-2.260417 2.51563,-4.019531 4.375,-5.277344 1.87761,-1.276041 4.04688,-1.914062 6.50782,-1.914062 1.25781,0 2.41536,0.173177 3.47265,0.519531 1.05729,0.328125 2.00521,0.829427 2.84375,1.503906 0.83854,0.674479 1.56771,1.53125 2.1875,2.570313 h 0.0274 V 79.478516 h 8.03906 V 120.2207 h -7.92969 v -4.42968 h -0.0273 c -0.56511,1.11197 -1.27605,2.05077 -2.13282,2.8164 -0.83854,0.7474 -1.80468,1.30339 -2.89843,1.66797 -1.09375,0.36459 -2.26954,0.54688 -3.52735,0.54688 z m 2.07813,-6.5625 c 1.36719,0 2.55208,-0.34636 3.55469,-1.03907 1.02083,-0.71093 1.8138,-1.70442 2.3789,-2.98047 0.56511,-1.27604 0.84766,-2.77083 0.84766,-4.48437 0,-1.73177 -0.28255,-3.22657 -0.84766,-4.48438 -0.5651,-1.276039 -1.35807,-2.260412 -2.3789,-2.953121 -1.00261,-0.710937 -2.1875,-1.066406 -3.55469,-1.066406 -1.29427,0 -2.42448,0.33724 -3.39063,1.011719 -0.96615,0.674479 -1.72266,1.640625 -2.26953,2.898438 -0.52865,1.25781 -0.79297,2.78906 -0.79297,4.59375 0,1.80469 0.26432,3.34505 0.79297,4.62109 0.54687,1.25781 1.30338,2.22396 2.26953,2.89844 0.96615,0.65625 2.09636,0.98438 3.39063,0.98438 z"
       id="text1"
       aria-label="Verified"
       sodipodi:nodetypes="cccccccccccccsccscsscccscccccscscsssccscsccscscccccssccccscsscccccccscscscscsccccccscssccccssscccccccscscscscssccscsscccscccccscscsssccscsccscssscsccscscccccccccsssscssccsscsccs" />
  </g>
  <g
     id="g2"
     transform="translate(-261.87467,-163.60612)"
     style="fill:#4a8fd9;fill-opacity:1">
    <path
       fill-rule="evenodd"
       d="m 121.33209,107.955 a 8.9988614,8.9988614 0 0 0 0,-15.909989 8.9988614,8.9988614 0 0 0 -11.24857,-11.251581 8.9988614,8.9988614 0 0 0 -15.912987,0 8.9988614,8.9988614 0 0 0 -11.25158,11.248581 8.9988614,8.9988614 0 0 0 0,15.912989 8.9988614,8.9988614 0 0 0 11.24858,11.25157 8.9988614,8.9988614 0 0 0 15.912987,0 8.9988614,8.9988614 0 0 0 11.25157,-11.24857 z m -7.63703,-13.37831 a 2.2514588,2.2514588 0 0 0 -3.64154,-2.648669 l -10.447677,14.368189 -5.63928,-5.63929 a 2.2497153,2.2497153 0 1 0 -3.1796,3.1826 l 7.49905,7.49905 a 2.2497153,2.2497153 0 0 0 3.410567,-0.26697 l 11.99848,-16.49791 z"
       clip-rule="evenodd"
       id="path2"
       style="fill:#4a8fd9;fill-opacity:1;stroke-width:2.99962" />
    <text
       xml:space="preserve"
       style="font-style:normal;font-variant:normal;font-weight:normal;font-stretch:normal;font-size:56px;line-height:0.9;font-family:Inter;-inkscape-font-specification:Inter;text-align:center;writing-mode:lr-tb;direction:ltr;text-anchor:middle;opacity:1;fill:#4a8fd9;fill-opacity:1;stroke-width:94.4882;stroke-linejoin:round"
       x="240.86731"
       y="120.2207"
       id="text2"><tspan
         sodipodi:role="line"
         id="tspan2"
         x="240.86731"
         y="120.2207"
         style="font-style:normal;font-variant:normal;font-weight:bold;font-stretch:normal;font-size:56px;font-family:'Inter Variable';-inkscape-font-specification:'Inter Variable Bold';fill:#4a8fd9;fill-opacity:1">Verified</tspan></text>
  </g>
</svg>
